<svg xmlns="http://www.w3.org/2000/svg" width="24" height="24" viewBox="0 0 24 24"><path d="M5.47 11.584H2.845a.769.769 0 0 1 0-1.536H5.47a.769.769 0 0 1 0 1.536zm1.854-4.133a.68.68 0 0 1-.477-.186L4.78 5.57a.785.785 0 0 1-.106-1.086.785.785 0 0 1 1.087-.106l2.066 1.695a.786.786 0 0 1 .106 1.087c-.185.185-.397.29-.609.29zm4.689-1.801a.769.769 0 0 1-.768-.77V2.232a.769.769 0 0 1 1.536 0v2.65a.769.769 0 0 1-.768.769zm4.663 1.8a.74.74 0 0 1-.583-.29.79.79 0 0 1 .106-1.087l2.066-1.695a.788.788 0 0 1 1.087.106.788.788 0 0 1-.106 1.086l-2.067 1.695a.743.743 0 0 1-.503.186zm4.478 4.134h-2.65a.769.769 0 0 1 0-1.536h2.65a.769.769 0 0 1 0 1.536zm-3.71 1.192H6.583a.836.836 0 0 0-.848.848v8.028a.836.836 0 0 0 .848.848h10.864a.836.836 0 0 0 .847-.848v-8.028c-.027-.477-.398-.848-.847-.848zm-4.9 5.273v1.086a.56.56 0 0 1-.558.556.56.56 0 0 1-.556-.556v-1.086c-.344-.186-.556-.557-.556-.981a1.12 1.12 0 0 1 1.112-1.112 1.12 1.12 0 0 1 1.114 1.112c.026.424-.213.795-.557.98zm3.867-5.273h-2.517v-1.298a1.889 1.889 0 0 0-1.881-1.881 1.89 1.89 0 0 0-1.882 1.88v1.3H7.615v-1.3a4.404 4.404 0 0 1 4.399-4.397 4.404 4.404 0 0 1 4.397 4.399z"/></svg>